<svg xmlns="http://www.w3.org/2000/svg" width="40" height="40" viewBox="0 0 40 40" fill="none">
  <circle cx="20" cy="20" r="20" fill="#0EA5E9"/>
  <path d="M28 15H30C30.5304 15 31.0391 15.2107 31.4142 15.5858C31.7893 15.9609 32 16.4696 32 17V23C32 23.5304 31.7893 24.0391 31.4142 24.4142C31.0391 24.7893 30.5304 25 30 25H28M20 27V29C20 29.5304 20.2107 30.0391 20.5858 30.4142C20.9609 30.7893 21.4696 31 22 31H26C26.5304 31 27.0391 30.7893 27.4142 30.4142C27.7893 30.0391 28 29.5304 28 29V11C28 10.4696 27.7893 9.96086 27.4142 9.58579C27.0391 9.21071 26.5304 9 26 9H22C21.4696 9 20.9609 9.21071 20.5858 9.58579C20.2107 9.96086 20 10.4696 20 11V13M20 20H8M8 20L12 16M8 20L12 24" stroke="white" stroke-width="2" stroke-linecap="round" stroke-linejoin="round"/>
</svg> 